<mxfile host="Electron" agent="Mozilla/5.0 (X11; Linux x86_64) AppleWebKit/537.36 (KHTML, like Gecko) draw.io/26.0.4 Chrome/128.0.6613.186 Electron/32.2.5 Safari/537.36" version="26.0.4">
  <diagram name="Page-1" id="vId87SOkCsIWXQ0tqA6e">
    <mxGraphModel dx="1114" dy="1198" grid="1" gridSize="10" guides="1" tooltips="1" connect="1" arrows="1" fold="1" page="1" pageScale="1" pageWidth="850" pageHeight="1100" math="0" shadow="0">
      <root>
        <mxCell id="0" />
        <mxCell id="1" parent="0" />
        <mxCell id="XSlVX54xTWeJZuw6pSp4-13" value="&amp;nbsp;What time is it?&amp;nbsp;" style="edgeStyle=orthogonalEdgeStyle;rounded=0;orthogonalLoop=1;jettySize=auto;html=1;" edge="1" parent="1">
          <mxGeometry relative="1" as="geometry">
            <mxPoint x="114.4545454545455" y="350" as="sourcePoint" />
            <mxPoint x="240" y="350" as="targetPoint" />
          </mxGeometry>
        </mxCell>
        <mxCell id="XSlVX54xTWeJZuw6pSp4-14" value="&amp;nbsp;5:30 pm!" style="edgeStyle=orthogonalEdgeStyle;rounded=0;orthogonalLoop=1;jettySize=auto;html=1;" edge="1" parent="1">
          <mxGeometry relative="1" as="geometry">
            <mxPoint x="240" y="390" as="sourcePoint" />
            <mxPoint x="114.4545454545455" y="390" as="targetPoint" />
          </mxGeometry>
        </mxCell>
        <mxCell id="XSlVX54xTWeJZuw6pSp4-1" value="" style="sketch=0;outlineConnect=0;fontColor=#232F3E;gradientColor=none;fillColor=#232F3D;strokeColor=none;dashed=0;verticalLabelPosition=bottom;verticalAlign=top;align=center;html=1;fontSize=12;fontStyle=0;aspect=fixed;pointerEvents=1;shape=mxgraph.aws4.user;" vertex="1" parent="1">
          <mxGeometry x="40" y="330" width="78" height="78" as="geometry" />
        </mxCell>
        <mxCell id="XSlVX54xTWeJZuw6pSp4-5" value="&amp;nbsp;attachment&amp;nbsp;" style="edgeStyle=orthogonalEdgeStyle;rounded=0;orthogonalLoop=1;jettySize=auto;html=1;" edge="1" parent="1" source="XSlVX54xTWeJZuw6pSp4-2" target="XSlVX54xTWeJZuw6pSp4-3">
          <mxGeometry x="0.2837" relative="1" as="geometry">
            <Array as="points">
              <mxPoint x="264" y="264" />
            </Array>
            <mxPoint as="offset" />
          </mxGeometry>
        </mxCell>
        <mxCell id="XSlVX54xTWeJZuw6pSp4-6" style="edgeStyle=orthogonalEdgeStyle;rounded=0;orthogonalLoop=1;jettySize=auto;html=1;" edge="1" parent="1" source="XSlVX54xTWeJZuw6pSp4-2" target="XSlVX54xTWeJZuw6pSp4-4">
          <mxGeometry relative="1" as="geometry">
            <Array as="points">
              <mxPoint x="264" y="480" />
            </Array>
          </mxGeometry>
        </mxCell>
        <mxCell id="XSlVX54xTWeJZuw6pSp4-2" value="Elastic IP Address" style="sketch=0;outlineConnect=0;fontColor=#232F3E;gradientColor=none;fillColor=#ED7100;strokeColor=none;dashed=0;verticalLabelPosition=middle;verticalAlign=middle;align=left;html=1;fontSize=12;fontStyle=0;aspect=fixed;pointerEvents=1;shape=mxgraph.aws4.elastic_ip_address;labelPosition=right;spacingLeft=5;" vertex="1" parent="1">
          <mxGeometry x="240" y="359" width="48" height="20" as="geometry" />
        </mxCell>
        <mxCell id="XSlVX54xTWeJZuw6pSp4-8" value="&amp;nbsp;monitor&amp;nbsp;" style="edgeStyle=orthogonalEdgeStyle;rounded=0;orthogonalLoop=1;jettySize=auto;html=1;" edge="1" parent="1" source="XSlVX54xTWeJZuw6pSp4-3" target="XSlVX54xTWeJZuw6pSp4-7">
          <mxGeometry relative="1" as="geometry">
            <Array as="points">
              <mxPoint x="609" y="264" />
            </Array>
          </mxGeometry>
        </mxCell>
        <mxCell id="XSlVX54xTWeJZuw6pSp4-3" value="Public EC2" style="sketch=0;outlineConnect=0;fontColor=#232F3E;gradientColor=none;fillColor=#ED7100;strokeColor=none;dashed=0;verticalLabelPosition=bottom;verticalAlign=top;align=center;html=1;fontSize=12;fontStyle=0;aspect=fixed;pointerEvents=1;shape=mxgraph.aws4.t2_instance;" vertex="1" parent="1">
          <mxGeometry x="410" y="240" width="48" height="48" as="geometry" />
        </mxCell>
        <mxCell id="XSlVX54xTWeJZuw6pSp4-4" value="Standby EC2 Instance" style="sketch=0;outlineConnect=0;fontColor=#232F3E;gradientColor=none;fillColor=#ED7100;strokeColor=none;dashed=0;verticalLabelPosition=bottom;verticalAlign=top;align=center;html=1;fontSize=12;fontStyle=0;aspect=fixed;pointerEvents=1;shape=mxgraph.aws4.t2_instance;" vertex="1" parent="1">
          <mxGeometry x="410" y="455" width="48" height="48" as="geometry" />
        </mxCell>
        <mxCell id="XSlVX54xTWeJZuw6pSp4-10" style="edgeStyle=orthogonalEdgeStyle;rounded=0;orthogonalLoop=1;jettySize=auto;html=1;" edge="1" parent="1" source="XSlVX54xTWeJZuw6pSp4-7" target="XSlVX54xTWeJZuw6pSp4-9">
          <mxGeometry relative="1" as="geometry" />
        </mxCell>
        <mxCell id="XSlVX54xTWeJZuw6pSp4-7" value="CloudWatch Event&lt;div&gt;(or Alarm based on metric)&lt;/div&gt;" style="sketch=0;outlineConnect=0;fontColor=#232F3E;gradientColor=none;fillColor=#E7157B;strokeColor=none;dashed=0;verticalLabelPosition=middle;verticalAlign=middle;align=left;html=1;fontSize=12;fontStyle=0;aspect=fixed;pointerEvents=1;shape=mxgraph.aws4.event_event_based;labelPosition=right;spacingLeft=5;" vertex="1" parent="1">
          <mxGeometry x="570" y="300" width="78" height="78" as="geometry" />
        </mxCell>
        <mxCell id="XSlVX54xTWeJZuw6pSp4-12" style="edgeStyle=orthogonalEdgeStyle;rounded=0;orthogonalLoop=1;jettySize=auto;html=1;" edge="1" parent="1" source="XSlVX54xTWeJZuw6pSp4-9" target="XSlVX54xTWeJZuw6pSp4-4">
          <mxGeometry relative="1" as="geometry" />
        </mxCell>
        <mxCell id="XSlVX54xTWeJZuw6pSp4-9" value="Start the instance&lt;div&gt;Attach the Elastic IP&lt;/div&gt;" style="sketch=0;points=[[0,0,0],[0.25,0,0],[0.5,0,0],[0.75,0,0],[1,0,0],[0,1,0],[0.25,1,0],[0.5,1,0],[0.75,1,0],[1,1,0],[0,0.25,0],[0,0.5,0],[0,0.75,0],[1,0.25,0],[1,0.5,0],[1,0.75,0]];outlineConnect=0;fontColor=#232F3E;fillColor=#ED7100;strokeColor=#ffffff;dashed=0;verticalLabelPosition=middle;verticalAlign=middle;align=left;html=1;fontSize=12;fontStyle=0;aspect=fixed;shape=mxgraph.aws4.resourceIcon;resIcon=mxgraph.aws4.lambda;labelPosition=right;spacingLeft=5;" vertex="1" parent="1">
          <mxGeometry x="570" y="440" width="78" height="78" as="geometry" />
        </mxCell>
      </root>
    </mxGraphModel>
  </diagram>
</mxfile>
